<svg version="1.1" xmlns="http://www.w3.org/2000/svg" xmlns:xlink="http://www.w3.org/1999/xlink" width="400" height="400" viewBox="0 0 400 400"><defs/><g><rect fill="rgb(200,200,200)" stroke="none" x="0" y="0" width="400" height="400" transform="matrix(1 0 0 1 0 0)" fill-opacity="1"/><path fill="#FFFFFF" stroke="rgb(255,0,0)" paint-order="fill stroke markers" d=" M 25 20 L 215 20 L 215 20 A 5 5 0 0 1 220 25 L 220 90 L 220 90 A 5 5 0 0 1 215 95 L 25 95 L 25 95 A 5 5 0 0 1 20 90 L 20 25 L 20 25 A 5 5 0 0 1 25 20 Z" stroke-opacity="1" stroke-linecap="round" stroke-miterlimit="10" stroke-dasharray=""/><path fill="#FFFFFF" stroke="rgb(255,0,0)" paint-order="fill stroke markers" d=" M 54.5 42 A 12.5 12.5 0 1 1 54.49999375000052 41.98750000208332 Z" stroke-opacity="1" stroke-linecap="round" stroke-miterlimit="10" stroke-dasharray=""/><path fill="none" stroke="rgb(0,0,0)" paint-order="fill stroke markers" d=" M 70 60 L 80 40" stroke-opacity="1" stroke-linecap="round" stroke-miterlimit="10" stroke-dasharray=""/><path fill="none" stroke="rgb(0,0,0)" paint-order="fill stroke markers" d=" M 90 60 L 80 40" stroke-opacity="1" stroke-linecap="round" stroke-miterlimit="10" stroke-dasharray=""/><path fill="none" stroke="rgb(0,0,0)" paint-order="fill stroke markers" d=" M 100 60 L 110 40" stroke-opacity="1" stroke-linecap="round" stroke-miterlimit="10" stroke-dasharray=""/><path fill="none" stroke="rgb(0,0,0)" paint-order="fill stroke markers" d=" M 120 60 L 110 40" stroke-opacity="1" stroke-linecap="round" stroke-miterlimit="10" stroke-dasharray=""/><g><text fill="none" stroke="rgb(0,0,0)" font-family="sans-serif" font-size="18px" font-style="normal" font-weight="normal" text-decoration="undefined" x="75" y="80" text-anchor="start" dominant-baseline="alphabetic" transform="matrix(1 0 0 1 0 0)" stroke-opacity="1" stroke-linecap="round" stroke-miterlimit="10" stroke-dasharray="">ВоВа</text><text fill="rgb(0,0,0)" stroke="none" font-family="sans-serif" font-size="18px" font-style="normal" font-weight="normal" text-decoration="undefined" x="75" y="80" text-anchor="start" dominant-baseline="alphabetic" transform="matrix(1 0 0 1 0 0)" fill-opacity="1">ВоВа</text></g><g><text fill="none" stroke="rgb(0,0,0)" font-family="sans-serif" font-size="30px" font-style="normal" font-weight="normal" text-decoration="undefined" x="140" y="70" text-anchor="start" dominant-baseline="alphabetic" transform="matrix(1 0 0 1 0 0)" stroke-opacity="1" stroke-linecap="round" stroke-miterlimit="10" stroke-dasharray="">^_^</text><text fill="rgb(0,0,0)" stroke="none" font-family="sans-serif" font-size="30px" font-style="normal" font-weight="normal" text-decoration="undefined" x="140" y="70" text-anchor="start" dominant-baseline="alphabetic" transform="matrix(1 0 0 1 0 0)" fill-opacity="1">^_^</text></g></g></svg>